<svg width="1440" height="848" viewBox="0 0 1440 848" fill="none" xmlns="http://www.w3.org/2000/svg">
<rect width="1440" height="848" fill="#EB8FFC"/>
<circle cx="551.214" cy="161.268" r="30.1345" fill="#AEF261" stroke="#83BF3F"/>
<circle cx="553.916" cy="245.063" r="30.1345" fill="#AEF261" stroke="#83BF3F"/>
<circle cx="492.647" cy="306.333" r="30.1345" fill="#AEF261" stroke="#83BF3F"/>
<circle cx="453.904" cy="386.522" r="30.1345" fill="#AEF261" stroke="#83BF3F"/>
<circle cx="385.635" cy="397.635" r="30.1345" fill="#AEF261" stroke="#83BF3F"/>
<circle cx="453.904" cy="459.505" r="30.1345" fill="#AEF261" stroke="#83BF3F"/>
<circle cx="502.558" cy="386.522" r="30.1345" fill="#AEF261" stroke="#83BF3F"/>
<circle cx="551.214" cy="325.253" r="30.1345" fill="#AEF261" stroke="#83BF3F"/>
<circle cx="551.214" cy="405.444" r="30.1345" fill="#AEF261" stroke="#83BF3F"/>
<circle cx="551.214" cy="447.792" r="30.1345" fill="#AEF261" stroke="#83BF3F"/>
<circle cx="563.828" cy="550.507" r="30.1345" fill="#AEF261" stroke="#83BF3F"/>
<circle cx="581.847" cy="634.302" r="30.1345" fill="#AEF261" stroke="#83BF3F"/>
<circle cx="643.117" cy="676.649" r="30.1345" fill="#AEF261" stroke="#83BF3F"/>
<circle cx="645.82" cy="748.731" r="30.1345" fill="#AEF261" stroke="#83BF3F"/>
<circle cx="676.455" cy="779.364" r="30.1345" fill="#AEF261" stroke="#83BF3F"/>
<circle cx="693.574" cy="718.096" r="30.1345" fill="#AEF261" stroke="#83BF3F"/>
<circle cx="720.604" cy="634.302" r="30.1345" fill="#AEF261" stroke="#83BF3F"/>
<circle cx="659.335" cy="603.667" r="30.1345" fill="#AEF261" stroke="#83BF3F"/>
<circle cx="659.335" cy="542.397" r="30.1345" fill="#AEF261" stroke="#83BF3F"/>
<circle cx="737.723" cy="530.684" r="30.1345" fill="#AEF261" stroke="#83BF3F"/>
<circle cx="816.112" cy="489.239" r="30.1345" fill="#AEF261" stroke="#83BF3F"/>
<circle cx="737.723" cy="477.524" r="30.1345" fill="#AEF261" stroke="#83BF3F"/>
<circle cx="632.635" cy="77.6345" r="30.1345" fill="#AEF261" stroke="#83BF3F"/>
<circle cx="706.635" cy="214.635" r="30.1345" fill="#AEF261" stroke="#83BF3F"/>
<circle cx="754.635" cy="222.635" r="30.1345" fill="#AEF261" stroke="#83BF3F"/>
<circle cx="395.635" cy="346.635" r="30.1345" fill="#AEF261" stroke="#83BF3F"/>
<circle cx="695.635" cy="417.635" r="30.1345" fill="#AEF261" stroke="#83BF3F"/>
<circle cx="626.635" cy="407.635" r="30.1345" fill="#AEF261" stroke="#83BF3F"/>
<circle cx="520.635" cy="353.635" r="30.1345" fill="#AEF261" stroke="#83BF3F"/>
<circle cx="618.635" cy="554.635" r="30.1345" fill="#AEF261" stroke="#83BF3F"/>
<circle cx="625.635" cy="695.635" r="30.1345" fill="#AEF261" stroke="#83BF3F"/>
<circle cx="763.635" cy="544.635" r="30.1345" fill="#AEF261" stroke="#83BF3F"/>
<circle cx="587.635" cy="314.635" r="30.1345" fill="#AEF261" stroke="#83BF3F"/>
<circle cx="744.635" cy="360.635" r="30.1345" fill="#AEF261" stroke="#83BF3F"/>
<circle cx="776.635" cy="452.635" r="30.1345" fill="#AEF261" stroke="#83BF3F"/>
<circle cx="823.635" cy="356.635" r="30.1345" fill="#AEF261" stroke="#83BF3F"/>
<circle cx="816.635" cy="245.635" r="30.1345" fill="#AEF261" stroke="#83BF3F"/>
<circle cx="916.635" cy="275.635" r="30.1345" fill="#AEF261" stroke="#83BF3F"/>
<circle cx="1026.63" cy="252.635" r="30.1345" fill="#AEF261" stroke="#83BF3F"/>
<circle cx="1057.63" cy="305.635" r="30.1345" fill="#AEF261" stroke="#83BF3F"/>
<circle cx="977.635" cy="283.635" r="30.1345" fill="#AEF261" stroke="#83BF3F"/>
<circle cx="862.635" cy="283.635" r="30.1345" fill="#AEF261" stroke="#83BF3F"/>
<circle cx="624.635" cy="215.635" r="30.1345" fill="#AEF261" stroke="#83BF3F"/>
<circle cx="624.635" cy="274.635" r="30.1345" fill="#AEF261" stroke="#83BF3F"/>
<circle cx="697.635" cy="274.635" r="30.1345" fill="#AEF261" stroke="#83BF3F"/>
<circle cx="594.635" cy="355.635" r="30.1345" fill="#AEF261" stroke="#83BF3F"/>
<circle cx="593.635" cy="423.635" r="30.1345" fill="#AEF261" stroke="#83BF3F"/>
<circle cx="615.635" cy="508.635" r="30.1345" fill="#AEF261" stroke="#83BF3F"/>
<circle cx="679.635" cy="453.635" r="30.1345" fill="#AEF261" stroke="#83BF3F"/>
<circle cx="612.635" cy="585.635" r="30.1345" fill="#AEF261" stroke="#83BF3F"/>
<circle cx="659.635" cy="385.635" r="30.1345" fill="#AEF261" stroke="#83BF3F"/>
<circle cx="659.635" cy="314.635" r="30.1345" fill="#AEF261" stroke="#83BF3F"/>
<circle cx="740.635" cy="313.635" r="30.1345" fill="#AEF261" stroke="#83BF3F"/>
<circle cx="798.635" cy="284.635" r="30.1345" fill="#AEF261" stroke="#83BF3F"/>
<circle cx="779.635" cy="356.635" r="30.1345" fill="#AEF261" stroke="#83BF3F"/>
<circle cx="751.635" cy="264.635" r="30.1345" fill="#AEF261" stroke="#83BF3F"/>
<circle cx="710.635" cy="362.635" r="30.1345" fill="#AEF261" stroke="#83BF3F"/>
<circle cx="679.635" cy="623.635" r="30.1345" fill="#AEF261" stroke="#83BF3F"/>
<circle cx="744.635" cy="415.635" r="30.1345" fill="#AEF261" stroke="#83BF3F"/>
<circle cx="812.635" cy="429.635" r="30.1345" fill="#AEF261" stroke="#83BF3F"/>
<circle cx="855.635" cy="387.635" r="30.1345" fill="#AEF261" stroke="#83BF3F"/>
<circle cx="833.635" cy="324.635" r="30.1345" fill="#AEF261" stroke="#83BF3F"/>
<circle cx="902.635" cy="331.635" r="30.1345" fill="#AEF261" stroke="#83BF3F"/>
<circle cx="912.635" cy="392.635" r="30.1345" fill="#AEF261" stroke="#83BF3F"/>
<circle cx="963.635" cy="336.635" r="30.1345" fill="#AEF261" stroke="#83BF3F"/>
<circle cx="1032.63" cy="301.635" r="30.1345" fill="#AEF261" stroke="#83BF3F"/>
<circle cx="871.635" cy="332.635" r="30.1345" fill="#AEF261" stroke="#83BF3F"/>
<circle cx="794.635" cy="407.635" r="30.1345" fill="#AEF261" stroke="#83BF3F"/>
<circle cx="785.635" cy="507.635" r="30.1345" fill="#AEF261" stroke="#83BF3F"/>
<circle cx="724.635" cy="573.635" r="30.1345" fill="#AEF261" stroke="#83BF3F"/>
<circle cx="690.635" cy="500.635" r="30.1345" fill="#AEF261" stroke="#83BF3F"/>
<circle cx="632.635" cy="456.635" r="30.1345" fill="#AEF261" stroke="#83BF3F"/>
<circle cx="571.635" cy="500.635" r="30.1345" fill="#AEF261" stroke="#83BF3F"/>
<circle cx="497.635" cy="428.635" r="30.1345" fill="#AEF261" stroke="#83BF3F"/>
<circle cx="604.635" cy="282.635" r="30.1345" fill="#AEF261" stroke="#83BF3F"/>
<circle cx="871.635" cy="445.635" r="30.1345" fill="#AEF261" stroke="#83BF3F"/>
<circle cx="574.635" cy="209.635" r="30.1345" fill="#AEF261" stroke="#83BF3F"/>
<circle cx="574.635" cy="62.6345" r="30.1345" fill="#AEF261" stroke="#83BF3F"/>
<circle cx="632.635" cy="130.635" r="30.1345" fill="#AEF261" stroke="#83BF3F"/>
<circle cx="664.635" cy="241.635" r="30.1345" fill="#AEF261" stroke="#83BF3F"/>
<circle cx="625.635" cy="634.635" r="30.1345" fill="#AEF261" stroke="#83BF3F"/>
<circle cx="694.635" cy="674.635" r="30.1345" fill="#AEF261" stroke="#83BF3F"/>
<circle cx="628.635" cy="344.635" r="30.1345" fill="#AEF261" stroke="#83BF3F"/>
<circle cx="539.635" cy="279.635" r="30.1345" fill="#AEF261" stroke="#83BF3F"/>
<circle cx="584.551" cy="130.635" r="30.1345" fill="#AEF261" stroke="#83BF3F"/>
<circle cx="645.82" cy="161.268" r="30.1345" fill="#AEF261" stroke="#83BF3F"/>
</svg>
