<svg width="1440" height="848" viewBox="0 0 1440 848" fill="none" xmlns="http://www.w3.org/2000/svg">
<rect width="1440" height="848" fill="#EB8FFC"/>
<circle cx="570.214" cy="161.268" r="30.1345" fill="#AEF261" stroke="#83BF3F"/>
<circle cx="572.916" cy="245.063" r="30.1345" fill="#AEF261" stroke="#83BF3F"/>
<circle cx="511.647" cy="306.333" r="30.1345" fill="#AEF261" stroke="#83BF3F"/>
<circle cx="472.904" cy="386.522" r="30.1345" fill="#AEF261" stroke="#83BF3F"/>
<circle cx="404.635" cy="397.635" r="30.1345" fill="#AEF261" stroke="#83BF3F"/>
<circle cx="472.904" cy="459.505" r="30.1345" fill="#AEF261" stroke="#83BF3F"/>
<circle cx="521.558" cy="386.522" r="30.1345" fill="#AEF261" stroke="#83BF3F"/>
<circle cx="570.214" cy="325.253" r="30.1345" fill="#AEF261" stroke="#83BF3F"/>
<circle cx="570.214" cy="405.444" r="30.1345" fill="#AEF261" stroke="#83BF3F"/>
<circle cx="570.214" cy="447.792" r="30.1345" fill="#AEF261" stroke="#83BF3F"/>
<circle cx="582.828" cy="550.507" r="30.1345" fill="#AEF261" stroke="#83BF3F"/>
<circle cx="600.847" cy="634.302" r="30.1345" fill="#AEF261" stroke="#83BF3F"/>
<circle cx="662.117" cy="676.649" r="30.1345" fill="#AEF261" stroke="#83BF3F"/>
<circle cx="664.82" cy="748.731" r="30.1345" fill="#AEF261" stroke="#83BF3F"/>
<circle cx="695.455" cy="779.364" r="30.1345" fill="#AEF261" stroke="#83BF3F"/>
<circle cx="712.574" cy="718.096" r="30.1345" fill="#AEF261" stroke="#83BF3F"/>
<circle cx="739.604" cy="634.302" r="30.1345" fill="#AEF261" stroke="#83BF3F"/>
<circle cx="678.335" cy="603.667" r="30.1345" fill="#AEF261" stroke="#83BF3F"/>
<circle cx="678.335" cy="542.397" r="30.1345" fill="#AEF261" stroke="#83BF3F"/>
<circle cx="756.723" cy="530.684" r="30.1345" fill="#AEF261" stroke="#83BF3F"/>
<circle cx="835.112" cy="489.239" r="30.1345" fill="#AEF261" stroke="#83BF3F"/>
<circle cx="756.723" cy="477.524" r="30.1345" fill="#AEF261" stroke="#83BF3F"/>
<circle cx="651.635" cy="77.6345" r="30.1345" fill="#AEF261" stroke="#83BF3F"/>
<circle cx="725.635" cy="214.635" r="30.1345" fill="#AEF261" stroke="#83BF3F"/>
<circle cx="773.635" cy="222.635" r="30.1345" fill="#AEF261" stroke="#83BF3F"/>
<circle cx="414.635" cy="346.635" r="30.1345" fill="#AEF261" stroke="#83BF3F"/>
<circle cx="714.635" cy="417.635" r="30.1345" fill="#AEF261" stroke="#83BF3F"/>
<circle cx="645.635" cy="407.635" r="30.1345" fill="#AEF261" stroke="#83BF3F"/>
<circle cx="539.635" cy="353.635" r="30.1345" fill="#AEF261" stroke="#83BF3F"/>
<circle cx="637.635" cy="554.635" r="30.1345" fill="#AEF261" stroke="#83BF3F"/>
<circle cx="644.635" cy="695.635" r="30.1345" fill="#AEF261" stroke="#83BF3F"/>
<circle cx="782.635" cy="544.635" r="30.1345" fill="#AEF261" stroke="#83BF3F"/>
<circle cx="606.635" cy="314.635" r="30.1345" fill="#AEF261" stroke="#83BF3F"/>
<circle cx="763.635" cy="360.635" r="30.1345" fill="#AEF261" stroke="#83BF3F"/>
<circle cx="795.635" cy="452.635" r="30.1345" fill="#AEF261" stroke="#83BF3F"/>
<circle cx="842.635" cy="356.635" r="30.1345" fill="#AEF261" stroke="#83BF3F"/>
<circle cx="835.635" cy="245.635" r="30.1345" fill="#AEF261" stroke="#83BF3F"/>
<circle cx="935.635" cy="275.635" r="30.1345" fill="#AEF261" stroke="#83BF3F"/>
<circle cx="1045.63" cy="252.635" r="30.1345" fill="#AEF261" stroke="#83BF3F"/>
<circle cx="1076.63" cy="305.635" r="30.1345" fill="#AEF261" stroke="#83BF3F"/>
<circle cx="996.635" cy="283.635" r="30.1345" fill="#AEF261" stroke="#83BF3F"/>
<circle cx="881.635" cy="283.635" r="30.1345" fill="#AEF261" stroke="#83BF3F"/>
<circle cx="643.635" cy="215.635" r="30.1345" fill="#AEF261" stroke="#83BF3F"/>
<circle cx="643.635" cy="274.635" r="30.1345" fill="#AEF261" stroke="#83BF3F"/>
<circle cx="716.635" cy="274.635" r="30.1345" fill="#AEF261" stroke="#83BF3F"/>
<circle cx="613.635" cy="355.635" r="30.1345" fill="#AEF261" stroke="#83BF3F"/>
<circle cx="612.635" cy="423.635" r="30.1345" fill="#AEF261" stroke="#83BF3F"/>
<circle cx="634.635" cy="508.635" r="30.1345" fill="#AEF261" stroke="#83BF3F"/>
<circle cx="698.635" cy="453.635" r="30.1345" fill="#AEF261" stroke="#83BF3F"/>
<circle cx="631.635" cy="585.635" r="30.1345" fill="#AEF261" stroke="#83BF3F"/>
<circle cx="678.635" cy="385.635" r="30.1345" fill="#AEF261" stroke="#83BF3F"/>
<circle cx="678.635" cy="314.635" r="30.1345" fill="#AEF261" stroke="#83BF3F"/>
<circle cx="759.635" cy="313.635" r="30.1345" fill="#AEF261" stroke="#83BF3F"/>
<circle cx="817.635" cy="284.635" r="30.1345" fill="#AEF261" stroke="#83BF3F"/>
<circle cx="798.635" cy="356.635" r="30.1345" fill="#AEF261" stroke="#83BF3F"/>
<circle cx="770.635" cy="264.635" r="30.1345" fill="#AEF261" stroke="#83BF3F"/>
<circle cx="729.635" cy="362.635" r="30.1345" fill="#AEF261" stroke="#83BF3F"/>
<circle cx="698.635" cy="623.635" r="30.1345" fill="#AEF261" stroke="#83BF3F"/>
<circle cx="763.635" cy="415.635" r="30.1345" fill="#AEF261" stroke="#83BF3F"/>
<circle cx="831.635" cy="429.635" r="30.1345" fill="#AEF261" stroke="#83BF3F"/>
<circle cx="874.635" cy="387.635" r="30.1345" fill="#AEF261" stroke="#83BF3F"/>
<circle cx="852.635" cy="324.635" r="30.1345" fill="#AEF261" stroke="#83BF3F"/>
<circle cx="921.635" cy="331.635" r="30.1345" fill="#AEF261" stroke="#83BF3F"/>
<circle cx="931.635" cy="392.635" r="30.1345" fill="#AEF261" stroke="#83BF3F"/>
<circle cx="982.635" cy="336.635" r="30.1345" fill="#AEF261" stroke="#83BF3F"/>
<circle cx="1051.63" cy="301.635" r="30.1345" fill="#AEF261" stroke="#83BF3F"/>
<circle cx="890.635" cy="332.635" r="30.1345" fill="#AEF261" stroke="#83BF3F"/>
<circle cx="813.635" cy="407.635" r="30.1345" fill="#AEF261" stroke="#83BF3F"/>
<circle cx="804.635" cy="507.635" r="30.1345" fill="#AEF261" stroke="#83BF3F"/>
<circle cx="743.635" cy="573.635" r="30.1345" fill="#AEF261" stroke="#83BF3F"/>
<circle cx="709.635" cy="500.635" r="30.1345" fill="#AEF261" stroke="#83BF3F"/>
<circle cx="651.635" cy="456.635" r="30.1345" fill="#AEF261" stroke="#83BF3F"/>
<circle cx="590.635" cy="500.635" r="30.1345" fill="#AEF261" stroke="#83BF3F"/>
<circle cx="516.635" cy="428.635" r="30.1345" fill="#AEF261" stroke="#83BF3F"/>
<circle cx="623.635" cy="282.635" r="30.1345" fill="#AEF261" stroke="#83BF3F"/>
<circle cx="890.635" cy="445.635" r="30.1345" fill="#AEF261" stroke="#83BF3F"/>
<circle cx="593.635" cy="209.635" r="30.1345" fill="#AEF261" stroke="#83BF3F"/>
<circle cx="593.635" cy="62.6345" r="30.1345" fill="#AEF261" stroke="#83BF3F"/>
<circle cx="651.635" cy="130.635" r="30.1345" fill="#AEF261" stroke="#83BF3F"/>
<circle cx="683.635" cy="241.635" r="30.1345" fill="#AEF261" stroke="#83BF3F"/>
<circle cx="644.635" cy="634.635" r="30.1345" fill="#AEF261" stroke="#83BF3F"/>
<circle cx="713.635" cy="674.635" r="30.1345" fill="#AEF261" stroke="#83BF3F"/>
<circle cx="647.635" cy="344.635" r="30.1345" fill="#AEF261" stroke="#83BF3F"/>
<circle cx="558.635" cy="279.635" r="30.1345" fill="#AEF261" stroke="#83BF3F"/>
<circle cx="603.551" cy="130.635" r="30.1345" fill="#AEF261" stroke="#83BF3F"/>
<circle cx="664.82" cy="161.268" r="30.1345" fill="#AEF261" stroke="#83BF3F"/>
</svg>
