<svg width="430" height="947" viewBox="0 0 430 947" fill="none" xmlns="http://www.w3.org/2000/svg">
<rect width="430" height="947" fill="#EB8FFC"/>
<circle cx="126.486" cy="354.519" r="15.7398" fill="#AEF261" stroke="#83BF3F" stroke-width="0.522319"/>
<circle cx="127.897" cy="398.286" r="15.7398" fill="#AEF261" stroke="#83BF3F" stroke-width="0.522319"/>
<circle cx="95.8965" cy="430.288" r="15.7398" fill="#AEF261" stroke="#83BF3F" stroke-width="0.522319"/>
<circle cx="75.6592" cy="472.173" r="15.7398" fill="#AEF261" stroke="#83BF3F" stroke-width="0.522319"/>
<circle cx="40.001" cy="477.978" r="15.7398" fill="#AEF261" stroke="#83BF3F" stroke-width="0.522319"/>
<circle cx="75.6592" cy="510.294" r="15.7398" fill="#AEF261" stroke="#83BF3F" stroke-width="0.522319"/>
<circle cx="101.072" cy="472.173" r="15.7398" fill="#AEF261" stroke="#83BF3F" stroke-width="0.522319"/>
<circle cx="126.486" cy="440.171" r="15.7398" fill="#AEF261" stroke="#83BF3F" stroke-width="0.522319"/>
<circle cx="126.486" cy="482.056" r="15.7398" fill="#AEF261" stroke="#83BF3F" stroke-width="0.522319"/>
<circle cx="126.486" cy="504.175" r="15.7398" fill="#AEF261" stroke="#83BF3F" stroke-width="0.522319"/>
<circle cx="133.075" cy="557.823" r="15.7398" fill="#AEF261" stroke="#83BF3F" stroke-width="0.522319"/>
<circle cx="142.487" cy="601.595" r="15.7398" fill="#AEF261" stroke="#83BF3F" stroke-width="0.522319"/>
<circle cx="174.489" cy="623.714" r="15.7398" fill="#AEF261" stroke="#83BF3F" stroke-width="0.522319"/>
<circle cx="175.901" cy="661.362" r="15.7398" fill="#AEF261" stroke="#83BF3F" stroke-width="0.522319"/>
<circle cx="191.902" cy="677.362" r="15.7398" fill="#AEF261" stroke="#83BF3F" stroke-width="0.522319"/>
<circle cx="200.844" cy="645.36" r="15.7398" fill="#AEF261" stroke="#83BF3F" stroke-width="0.522319"/>
<circle cx="214.962" cy="601.595" r="15.7398" fill="#AEF261" stroke="#83BF3F" stroke-width="0.522319"/>
<circle cx="182.96" cy="585.591" r="15.7398" fill="#AEF261" stroke="#83BF3F" stroke-width="0.522319"/>
<circle cx="182.96" cy="553.589" r="15.7398" fill="#AEF261" stroke="#83BF3F" stroke-width="0.522319"/>
<circle cx="223.904" cy="547.472" r="15.7398" fill="#AEF261" stroke="#83BF3F" stroke-width="0.522319"/>
<circle cx="264.847" cy="525.823" r="15.7398" fill="#AEF261" stroke="#83BF3F" stroke-width="0.522319"/>
<circle cx="223.904" cy="519.706" r="15.7398" fill="#AEF261" stroke="#83BF3F" stroke-width="0.522319"/>
<circle cx="169.014" cy="310.835" r="15.7398" fill="#AEF261" stroke="#83BF3F" stroke-width="0.522319"/>
<circle cx="207.665" cy="382.394" r="15.7398" fill="#AEF261" stroke="#83BF3F" stroke-width="0.522319"/>
<circle cx="232.737" cy="386.571" r="15.7398" fill="#AEF261" stroke="#83BF3F" stroke-width="0.522319"/>
<circle cx="45.2246" cy="451.339" r="15.7398" fill="#AEF261" stroke="#83BF3F" stroke-width="0.522319"/>
<circle cx="201.92" cy="488.425" r="15.7398" fill="#AEF261" stroke="#83BF3F" stroke-width="0.522319"/>
<circle cx="165.88" cy="483.202" r="15.7398" fill="#AEF261" stroke="#83BF3F" stroke-width="0.522319"/>
<circle cx="110.514" cy="454.995" r="15.7398" fill="#AEF261" stroke="#83BF3F" stroke-width="0.522319"/>
<circle cx="161.702" cy="559.979" r="15.7398" fill="#AEF261" stroke="#83BF3F" stroke-width="0.522319"/>
<circle cx="165.357" cy="633.628" r="15.7398" fill="#AEF261" stroke="#83BF3F" stroke-width="0.522319"/>
<circle cx="237.438" cy="554.759" r="15.7398" fill="#AEF261" stroke="#83BF3F" stroke-width="0.522319"/>
<circle cx="145.51" cy="434.626" r="15.7398" fill="#AEF261" stroke="#83BF3F" stroke-width="0.522319"/>
<circle cx="227.514" cy="458.653" r="15.7398" fill="#AEF261" stroke="#83BF3F" stroke-width="0.522319"/>
<circle cx="244.228" cy="506.704" r="15.7398" fill="#AEF261" stroke="#83BF3F" stroke-width="0.522319"/>
<circle cx="268.776" cy="456.563" r="15.7398" fill="#AEF261" stroke="#83BF3F" stroke-width="0.522319"/>
<circle cx="265.121" cy="398.587" r="15.7398" fill="#AEF261" stroke="#83BF3F" stroke-width="0.522319"/>
<circle cx="317.352" cy="414.253" r="15.7398" fill="#AEF261" stroke="#83BF3F" stroke-width="0.522319"/>
<circle cx="374.807" cy="402.243" r="15.7398" fill="#AEF261" stroke="#83BF3F" stroke-width="0.522319"/>
<circle cx="390.999" cy="429.925" r="15.7398" fill="#AEF261" stroke="#83BF3F" stroke-width="0.522319"/>
<circle cx="349.214" cy="418.433" r="15.7398" fill="#AEF261" stroke="#83BF3F" stroke-width="0.522319"/>
<circle cx="289.147" cy="418.433" r="15.7398" fill="#AEF261" stroke="#83BF3F" stroke-width="0.522319"/>
<circle cx="164.835" cy="382.915" r="15.7398" fill="#AEF261" stroke="#83BF3F" stroke-width="0.522319"/>
<circle cx="164.835" cy="413.731" r="15.7398" fill="#AEF261" stroke="#83BF3F" stroke-width="0.522319"/>
<circle cx="202.964" cy="413.731" r="15.7398" fill="#AEF261" stroke="#83BF3F" stroke-width="0.522319"/>
<circle cx="149.166" cy="456.04" r="15.7398" fill="#AEF261" stroke="#83BF3F" stroke-width="0.522319"/>
<circle cx="148.644" cy="491.558" r="15.7398" fill="#AEF261" stroke="#83BF3F" stroke-width="0.522319"/>
<circle cx="160.135" cy="535.956" r="15.7398" fill="#AEF261" stroke="#83BF3F" stroke-width="0.522319"/>
<circle cx="193.563" cy="507.228" r="15.7398" fill="#AEF261" stroke="#83BF3F" stroke-width="0.522319"/>
<circle cx="158.568" cy="576.173" r="15.7398" fill="#AEF261" stroke="#83BF3F" stroke-width="0.522319"/>
<circle cx="183.116" cy="471.71" r="15.7398" fill="#AEF261" stroke="#83BF3F" stroke-width="0.522319"/>
<circle cx="183.116" cy="434.626" r="15.7398" fill="#AEF261" stroke="#83BF3F" stroke-width="0.522319"/>
<circle cx="225.424" cy="434.103" r="15.7398" fill="#AEF261" stroke="#83BF3F" stroke-width="0.522319"/>
<circle cx="255.719" cy="418.956" r="15.7398" fill="#AEF261" stroke="#83BF3F" stroke-width="0.522319"/>
<circle cx="245.794" cy="456.563" r="15.7398" fill="#AEF261" stroke="#83BF3F" stroke-width="0.522319"/>
<circle cx="231.17" cy="408.511" r="15.7398" fill="#AEF261" stroke="#83BF3F" stroke-width="0.522319"/>
<circle cx="209.755" cy="459.696" r="15.7398" fill="#AEF261" stroke="#83BF3F" stroke-width="0.522319"/>
<circle cx="193.563" cy="596.022" r="15.7398" fill="#AEF261" stroke="#83BF3F" stroke-width="0.522319"/>
<circle cx="227.514" cy="487.38" r="15.7398" fill="#AEF261" stroke="#83BF3F" stroke-width="0.522319"/>
<circle cx="263.031" cy="494.692" r="15.7398" fill="#AEF261" stroke="#83BF3F" stroke-width="0.522319"/>
<circle cx="285.491" cy="472.755" r="15.7398" fill="#AEF261" stroke="#83BF3F" stroke-width="0.522319"/>
<circle cx="274" cy="439.849" r="15.7398" fill="#AEF261" stroke="#83BF3F" stroke-width="0.522319"/>
<circle cx="310.04" cy="443.505" r="15.7398" fill="#AEF261" stroke="#83BF3F" stroke-width="0.522319"/>
<circle cx="315.263" cy="475.366" r="15.7398" fill="#AEF261" stroke="#83BF3F" stroke-width="0.522319"/>
<circle cx="341.901" cy="446.116" r="15.7398" fill="#AEF261" stroke="#83BF3F" stroke-width="0.522319"/>
<circle cx="377.941" cy="427.835" r="15.7398" fill="#AEF261" stroke="#83BF3F" stroke-width="0.522319"/>
<circle cx="293.848" cy="444.026" r="15.7398" fill="#AEF261" stroke="#83BF3F" stroke-width="0.522319"/>
<circle cx="253.629" cy="483.202" r="15.7398" fill="#AEF261" stroke="#83BF3F" stroke-width="0.522319"/>
<circle cx="248.929" cy="535.433" r="15.7398" fill="#AEF261" stroke="#83BF3F" stroke-width="0.522319"/>
<circle cx="217.067" cy="569.905" r="15.7398" fill="#AEF261" stroke="#83BF3F" stroke-width="0.522319"/>
<circle cx="199.308" cy="531.778" r="15.7398" fill="#AEF261" stroke="#83BF3F" stroke-width="0.522319"/>
<circle cx="169.014" cy="508.794" r="15.7398" fill="#AEF261" stroke="#83BF3F" stroke-width="0.522319"/>
<circle cx="137.153" cy="531.778" r="15.7398" fill="#AEF261" stroke="#83BF3F" stroke-width="0.522319"/>
<circle cx="98.5005" cy="494.169" r="15.7398" fill="#AEF261" stroke="#83BF3F" stroke-width="0.522319"/>
<circle cx="154.389" cy="417.911" r="15.7398" fill="#AEF261" stroke="#83BF3F" stroke-width="0.522319"/>
<circle cx="293.848" cy="503.048" r="15.7398" fill="#AEF261" stroke="#83BF3F" stroke-width="0.522319"/>
<circle cx="138.72" cy="379.782" r="15.7398" fill="#AEF261" stroke="#83BF3F" stroke-width="0.522319"/>
<circle cx="138.72" cy="303.001" r="15.7398" fill="#AEF261" stroke="#83BF3F" stroke-width="0.522319"/>
<circle cx="169.014" cy="338.517" r="15.7398" fill="#AEF261" stroke="#83BF3F" stroke-width="0.522319"/>
<circle cx="185.728" cy="396.497" r="15.7398" fill="#AEF261" stroke="#83BF3F" stroke-width="0.522319"/>
<circle cx="165.357" cy="601.767" r="15.7398" fill="#AEF261" stroke="#83BF3F" stroke-width="0.522319"/>
<circle cx="201.397" cy="622.659" r="15.7398" fill="#AEF261" stroke="#83BF3F" stroke-width="0.522319"/>
<circle cx="166.924" cy="450.296" r="15.7398" fill="#AEF261" stroke="#83BF3F" stroke-width="0.522319"/>
<circle cx="120.438" cy="416.343" r="15.7398" fill="#AEF261" stroke="#83BF3F" stroke-width="0.522319"/>
<circle cx="143.898" cy="338.517" r="15.7398" fill="#AEF261" stroke="#83BF3F" stroke-width="0.522319"/>
<circle cx="175.901" cy="354.519" r="15.7398" fill="#AEF261" stroke="#83BF3F" stroke-width="0.522319"/>
</svg>
