<svg width="884" height="111" viewBox="0 0 884 111" fill="none" xmlns="http://www.w3.org/2000/svg">
<path d="M605.203 0.136719C673.384 0.137199 658.344 110.137 658.344 110.137H609.846V75.1201H600.441V110.137H551.894C551.894 110.137 537.02 0.136719 605.203 0.136719Z" fill="#AEF261"/>
<path d="M163.95 0.03125C209.88 0.0314108 218.502 34.5608 218.502 39.3652C218.502 40.1293 218.487 42.4702 218.465 45.9258C218.377 59.4443 218.179 90.0291 218.346 110.076H170.377V97.0283H160.658V110.076H112.689C112.689 93.286 112.687 66.4858 112.596 51.0674C112.559 44.8417 112.596 40.6215 112.596 39.5156C114.059 27.6053 122.409 0.03125 163.95 0.03125ZM160.793 31.1309V66.1494H170.197V31.1309H160.793Z" fill="#AEF261"/>
<path d="M829.394 0.03125C875.325 0.0314498 883.946 34.5611 883.946 39.3652C883.946 40.1293 883.931 42.4695 883.909 45.9248C883.821 59.4431 883.623 90.0289 883.79 110.076H835.821V97.0283H826.102V110.076H778.134C778.134 93.2858 778.131 66.4848 778.04 51.0664C778.003 44.8411 778.04 40.6215 778.04 39.5156C779.503 27.6053 787.853 0.03125 829.394 0.03125ZM826.238 31.1309V66.1494H835.642V31.1309H826.238Z" fill="#AEF261"/>
<path d="M319.25 0.03125V110.105H224.869V79.6875H259.893V70.248H224.869V39.8301H259.893V30.4492H224.869V0.03125H319.25Z" fill="#AEF261"/>
<path d="M373.419 24.8887L379.842 55.9883L370.038 85.7363L387.278 110.132H360.231V0.0585938H384.236L373.419 24.8887Z" fill="#AEF261"/>
<path d="M361.771 5.73535H361.771V110.133H326.301V0.03125H361.771V5.73535ZM398.761 0.0634766C403.285 0.0635144 407.766 0.891093 411.946 2.49902C416.126 4.10699 419.925 6.46447 423.124 9.43555C426.323 12.4067 428.64 15.9355 430.371 19.8174C432.035 23.5469 432.078 27.4835 432.2 31.5605H432.214C432.211 31.6383 432.208 31.7162 432.206 31.7939C432.209 31.8827 432.212 31.9717 432.215 32.0605H432.198C432.076 36.1377 432.034 40.0741 430.37 43.8037C428.639 47.6857 426.322 51.2143 423.123 54.1855C422.789 54.4956 422.447 54.7972 422.101 55.0938C422.447 55.3902 422.789 55.6919 423.123 56.002C426.322 58.9731 428.639 62.5018 430.37 66.3838C432.034 70.1135 432.077 74.0498 432.199 78.127H432.214C432.211 78.2103 432.209 78.2937 432.206 78.377C432.209 78.4602 432.211 78.5436 432.214 78.627H432.199C432.077 82.7042 432.034 86.6404 430.37 90.3701C428.639 94.2522 426.323 97.7807 423.123 100.752C419.924 103.723 416.126 106.08 411.945 107.688C407.765 109.296 403.284 110.124 398.76 110.124C394.235 110.124 387.996 110.124 383.63 110.124C379.45 108.516 376.412 103.723 373.213 100.752C370.014 97.7808 367.476 94.2531 365.744 90.3711C365.524 89.8766 365.317 89.3771 365.124 88.874V67.8799C365.317 67.3768 365.524 66.8774 365.744 66.3828C367.476 62.5008 370.013 58.9732 373.213 56.002C373.521 55.7154 373.826 55.4097 374.133 55.0938C373.826 54.7779 373.521 54.472 373.213 54.1855C370.014 51.2144 367.475 47.6867 365.743 43.8047C365.523 43.3117 365.317 42.814 365.124 42.3125V21.3135C365.317 20.8104 365.525 20.3109 365.745 19.8164C367.477 15.9345 370.015 12.4067 373.214 9.43555C376.413 6.4643 379.451 1.67148 383.631 0.0634766C387.997 0.0634718 394.236 0.0634767 398.761 0.0634766ZM375.613 84.2568H410.632V74.8525H375.613V84.2568ZM375.613 24.5947V33.999H410.632V24.5947H375.613Z" fill="#AEF261"/>
<path d="M544.628 0.0322266V0.330078L544.63 0.331055H544.628V109.804L532.562 110.103L520.498 109.804L521.415 51.6562L491.668 89.3428V89.46L475.432 110.104H438.707V0.331055L450.772 0.0322266H462.837V46.623L491.668 13.7959V14.043L503.547 0.03125H531.937L544.628 0.0322266Z" fill="#AEF261"/>
<path d="M734.267 110.103H724.862V75.084H734.267V110.103Z" fill="white"/>
<path d="M713.887 35.1953H723.269V0.03125H771.597V41.1309L738.28 55.041L771.597 68.9502V110.104H723.269V75.085H713.887V110.048H665.673V0.03125H713.887V35.1953Z" fill="#AEF261"/>
<path d="M35.4805 0.0283203H53.249C60.412 0.0283319 67.5054 1.3382 74.123 3.88379C80.7405 6.42937 86.7536 10.1608 91.8184 14.8643C96.8831 19.5678 100.55 25.1543 103.291 31.2998C105.421 36.0765 105.871 41.068 106.067 46.2178H106.209C106.185 46.9646 106.163 47.7093 106.142 48.4502C106.163 49.1911 106.185 49.9357 106.209 50.6826H106.067C105.871 55.8324 105.422 60.8239 103.291 65.6006C100.55 71.746 96.8832 77.3326 91.8184 82.0361C86.7535 86.7396 80.7396 90.4711 74.1221 93.0166C67.5046 95.562 60.4117 96.8721 53.249 96.8721C48.0337 96.8721 41.3795 96.8721 35.4785 96.8721V110.102H0.00976562V63.2588C0.00670011 63.2508 0.00308153 63.2423 0 63.2344V33.668C0.00316957 33.6597 0.00658718 33.6508 0.00976562 33.6426V0H35.4805V0.0283203ZM48.3926 31.1299V66.1484H57.7969V31.1299H48.3926Z" fill="#AEF261"/>
</svg>
