<svg width="41" height="40" viewBox="0 0 41 40" fill="none" xmlns="http://www.w3.org/2000/svg">
<path d="M22.9135 2.02882L18.3072 10.8202L14.5432 3.28929L13.35 3.16253L13.469 13.3998L6.10856 9.10469L4.55826 11.3519L9.4392 18.7394L1.61424 20.7919L1.48754 21.9844L9.34097 24.6015L4.47891 29.3808L5.36769 30.8909L13.2326 29.9438L10.4942 35.473L12.7097 37.3339L19.3154 30.9571L24.1224 38.5464L26.2855 37.9373L26.0344 28.9444L33.993 33.0409L35.0732 31.268L29.2594 22.7852L38.4933 23.7663L38.6089 22.6775L30.5985 18.5755L37.6614 13.8203L37.0783 12.3951L28.9463 12.8944L32.712 6.58295L31.6181 5.52291L25.1029 11.5422L26.0118 2.98721L22.9135 2.02882Z" fill="#FF801F"/>
<circle cx="20.2061" cy="20.6476" r="6.10283" transform="rotate(6.06472 20.2061 20.6476)" fill="#AEF261"/>
</svg>
