<svg width="39" height="39" viewBox="0 0 39 39" fill="none" xmlns="http://www.w3.org/2000/svg">
<path d="M17.1991 2.81986C18.2064 1.4296 20.278 1.4296 21.2853 2.81986C22.0275 3.84428 23.4136 4.16065 24.5268 3.55972C26.0376 2.74419 27.904 3.64301 28.2083 5.33264C28.4326 6.57765 29.5442 7.46412 30.8079 7.4057C32.5229 7.32641 33.8145 8.94604 33.3556 10.6004C33.0174 11.8194 33.6343 13.1004 34.7982 13.596C36.3777 14.2687 36.8387 16.2883 35.7074 17.5797C34.8739 18.5313 34.8739 19.9531 35.7074 20.9047C36.8387 22.1961 36.3777 24.2157 34.7982 24.8884C33.6343 25.384 33.0174 26.665 33.3556 27.884C33.8145 29.5384 32.5229 31.158 30.8079 31.0787C29.5442 31.0203 28.4326 31.9068 28.2083 33.1518C27.904 34.8414 26.0376 35.7402 24.5268 34.9247C23.4136 34.3238 22.0275 34.6401 21.2853 35.6646C20.278 37.0548 18.2064 37.0548 17.1991 35.6646C16.4569 34.6401 15.0708 34.3238 13.9576 34.9247C12.4468 35.7402 10.5804 34.8414 10.2761 33.1518C10.0518 31.9068 8.94023 31.0203 7.67654 31.0787C5.96155 31.158 4.66994 29.5384 5.12886 27.884C5.46701 26.665 4.85012 25.384 3.68623 24.8884C2.10668 24.2157 1.64571 22.1961 2.77697 20.9047C3.61055 19.9531 3.61055 18.5313 2.77697 17.5797C1.64571 16.2883 2.10668 14.2687 3.68623 13.596C4.85012 13.1004 5.46701 11.8194 5.12886 10.6004C4.66994 8.94604 5.96155 7.32641 7.67654 7.4057C8.94023 7.46412 10.0518 6.57765 10.2761 5.33264C10.5804 3.64301 12.4468 2.74419 13.9576 3.55972C15.0708 4.16065 16.4569 3.84428 17.1991 2.81986Z" fill="#FF801F"/>
<path fill-rule="evenodd" clip-rule="evenodd" d="M17.5345 17.4037C16.109 16.3135 13.543 13.2947 14.6834 9.9405C15.0747 9.07399 16.4947 7.34097 19.0439 7.34097C20.162 7.31302 22.6496 7.79379 23.6558 9.9405C24.5182 11.7802 24.3604 14.4519 21.1403 17.4037L26.5909 16.062V21.1772L20.8887 20.1709C21.3639 23.3295 22.504 27.6143 22.4369 30.0965C21.3468 30.2362 18.764 30.5661 16.8186 30.0965C17.0422 27.1615 17.4339 23.0556 18.0376 20.1709C17.9705 20.1709 14.1523 21.0095 12.2516 21.4288L12 16.7328L17.5345 17.4037ZM16.8636 12.4562C17.2829 14.4687 18.8203 15.6986 19.4632 16.062C20.8719 15.3241 21.4357 14.3988 21.9907 12.4562C22.4043 11.0086 21.308 9.18582 19.2116 9.18582C17.1152 9.18582 16.6451 11.4074 16.8636 12.4562Z" fill="#AEF261"/>
</svg>
