<svg width="50" height="50" viewBox="0 0 50 50" fill="none" xmlns="http://www.w3.org/2000/svg">
<circle cx="24.5062" cy="24.506" r="17.7179" transform="rotate(32.9663 24.5062 24.506)" fill="#048A46"/>
<path d="M32.2223 12.6815C34.8089 14.359 36.6657 16.7388 37.7061 19.4075L37.826 19.4434L37.7803 19.6C39.2942 23.6567 38.9345 28.3529 36.3976 32.2647L36.1943 32.5693C35.3088 33.8616 34.244 34.9622 33.0555 35.86L33.0257 35.9652L32.9458 35.9412C29.8258 38.2509 25.8747 39.1754 22.0661 38.5076C21.9536 38.5101 21.8462 38.5115 21.7444 38.5084C21.3639 38.4969 21.0603 38.4516 20.8536 38.4102C20.7503 38.3896 20.6708 38.3694 20.6189 38.3558C20.6102 38.3535 20.5979 38.3498 20.5873 38.3469L20.5722 38.3488L20.5297 38.3317C20.1098 38.1661 19.7233 37.9699 19.366 37.7516C18.4895 37.4082 17.6341 36.9717 16.8136 36.4395L16.5098 36.2366C14.0461 34.5485 12.2782 32.2099 11.287 29.6018L11.2644 29.5953L11.2727 29.5646C9.74029 25.498 10.0935 20.7816 12.6396 16.8559C13.6019 15.3724 14.7953 14.1291 16.1414 13.1419L16.1461 13.1275L16.1572 13.1301C19.4089 10.7525 23.5503 9.86968 27.4889 10.7138C27.8807 10.7145 28.2363 10.7544 28.5462 10.8245L28.5603 10.8278L28.5726 10.8323C29.0254 11.0042 29.4407 11.206 29.8229 11.4314C30.6459 11.7649 31.4496 12.1803 32.2223 12.6815ZM11.7628 29.7404C12.7859 32.2666 14.5665 34.5152 17.0267 36.1109C17.36 36.3271 17.7004 36.5255 18.0446 36.7094C16.5077 35.1603 15.8014 33.007 15.5332 30.8437L11.7628 29.7404ZM15.9385 30.9635C16.2853 33.5368 17.281 36.0014 19.5477 37.4015C19.7485 37.4794 19.9505 37.5518 20.1534 37.6197C19.7888 36.6476 19.6415 35.4633 19.6358 34.2111C19.6327 33.517 19.6727 32.7976 19.7413 32.0761L15.9385 30.9635ZM20.1238 32.188C20.0605 32.8732 20.0237 33.5539 20.0266 34.2097C20.0329 35.5785 20.2094 36.8203 20.6353 37.7705C20.7174 37.7946 20.7995 37.8182 20.8819 37.8408C21.0369 37.7536 21.2325 37.6115 21.4626 37.3851C21.8714 36.9827 22.3703 36.3493 22.9386 35.4162C23.2887 34.8413 23.6625 34.1536 24.0584 33.3397L20.1238 32.188ZM24.4401 33.451C24.0286 34.3018 23.6386 35.02 23.273 35.6203C22.6942 36.5707 22.1756 37.2322 21.7367 37.6642C21.6165 37.7824 21.4972 37.8818 21.3852 37.9693C21.6212 38.0245 21.8581 38.0735 22.0956 38.1158C22.7738 38.096 23.653 37.9545 24.6441 37.5083C25.7559 37.0076 27.0172 36.1194 28.2989 34.5814L24.4401 33.451ZM28.7078 34.7011C27.3572 36.3588 26.0109 37.3221 24.8049 37.8652C24.3727 38.0598 23.959 38.197 23.5722 38.296C26.7169 38.5097 29.8729 37.6382 32.4705 35.8018L28.7078 34.7011ZM10.7819 23.6219C10.6519 25.5482 10.9291 27.4787 11.5861 29.2825L15.4829 30.4224C15.4367 29.9523 15.4099 29.4837 15.3991 29.0225C15.3656 27.5853 15.4842 26.2052 15.6415 25.0557L10.7819 23.6219ZM16.0219 25.1674C15.871 26.2876 15.758 27.624 15.7904 29.0132C15.8022 29.5202 15.8355 30.0322 15.8904 30.5423L19.7812 31.6807C19.8628 30.9356 19.9728 30.1927 20.0988 29.4772C20.2853 28.418 20.5069 27.4161 20.7173 26.5529L16.0219 25.1674ZM21.0934 26.6641C20.8862 27.5157 20.6681 28.5021 20.4845 29.5447C20.3557 30.2765 20.2441 31.0347 20.163 31.7921L24.2294 32.9827C24.8389 31.6919 25.4951 30.1039 26.1798 28.1647L21.0934 26.6641ZM26.555 28.2753C25.8744 30.2049 25.2209 31.7942 24.6103 33.0935L28.5653 34.2514C29.4778 33.093 30.396 31.5973 31.2716 29.6676L26.555 28.2753ZM12.2853 18.244C11.4624 19.833 10.9787 21.5232 10.8142 23.2239L15.6964 24.6642C15.9299 23.1155 16.2163 22.0696 16.2337 22.0178C16.5236 21.1821 16.8305 20.4037 17.1517 19.6799L12.2853 18.244ZM31.6506 29.7796C30.7878 31.6897 29.8795 33.1909 28.9696 34.3692L32.868 35.5102C34.0935 34.5758 35.1824 33.4188 36.0691 32.0516C36.2445 31.7811 36.4081 31.5062 36.5622 31.2284L31.6506 29.7796ZM17.5307 19.7919C17.2068 20.5184 16.8963 21.3017 16.6035 22.1458C16.6021 22.1509 16.5878 22.1991 16.5628 22.2964C16.5372 22.3966 16.5014 22.5418 16.4594 22.7251C16.3753 23.0921 16.2665 23.6143 16.1603 24.2469C16.132 24.4156 16.1041 24.5923 16.0768 24.7759L20.8109 26.1736C21.1713 24.7419 21.4797 23.7713 21.5009 23.6973C21.7559 22.8049 22.0123 21.9701 22.2691 21.1901L17.5307 19.7919ZM22.6443 21.3008C22.388 22.0788 22.1319 22.9125 21.8769 23.8049C21.8536 23.886 21.5454 24.8562 21.1866 26.2834L26.3078 27.7949C26.5303 27.1539 26.7575 26.4765 26.9853 25.7597C26.9985 25.7182 27.3651 24.5211 27.8001 22.8219L22.6443 21.3008ZM28.1753 22.9325C27.7397 24.6325 27.3731 25.83 27.3579 25.878C27.1312 26.5913 26.9047 27.2661 26.683 27.9056L31.432 29.3072C31.764 28.5507 32.0911 27.7309 32.4075 26.8414L32.4104 26.8351C32.4103 26.8351 32.4268 26.7862 32.4583 26.6822C32.4884 26.5826 32.5296 26.4387 32.5789 26.2576C32.6774 25.8951 32.8071 25.3804 32.9348 24.7576C32.9611 24.6295 32.9857 24.4962 33.0116 24.3593L28.1753 22.9325ZM16.2347 13.5598C14.9823 14.5027 13.8708 15.6774 12.9682 17.069C12.7928 17.3394 12.6283 17.614 12.4742 17.8917L17.3151 19.3203C18.1944 17.4159 19.1728 15.9027 20.1831 14.7099L16.2347 13.5598ZM33.3884 24.471C33.3645 24.5962 33.3421 24.7184 33.318 24.8362C33.0682 26.0546 32.8118 26.8731 32.7764 26.9724L32.5431 27.6103C32.3039 28.2493 32.0592 28.8514 31.8111 29.4192L36.752 30.8766C37.5748 29.2875 38.0587 27.5975 38.223 25.8968L33.3884 24.471ZM20.5942 14.8298C19.5779 16.0017 18.5888 17.5094 17.6963 19.4325L22.3939 20.8183C23.0584 18.8455 23.7223 17.2344 24.3591 15.9272L20.5942 14.8298ZM24.7399 16.0381C24.1045 17.3352 23.4388 18.9453 22.7699 20.9294L27.8963 22.442C28.1569 21.402 28.4346 20.205 28.6685 18.9829C28.7778 18.4114 28.8758 17.8349 28.9602 17.2679L24.7399 16.0381ZM29.3395 17.3777C29.2557 17.9349 29.1593 18.499 29.0527 19.0564C28.8162 20.2925 28.5348 21.5026 28.2715 22.5526L33.0809 23.9724C33.2764 22.846 33.4391 21.4857 33.4354 20.068C33.4341 19.565 33.4089 19.0564 33.361 18.5496L29.3395 17.3777ZM26.0399 10.8751C22.7356 10.5103 19.3792 11.3558 16.636 13.2695L20.4656 14.3856C22.3734 12.2564 24.3747 11.2376 26.0399 10.8751ZM33.7661 18.668C33.8059 19.1375 33.8251 19.6059 33.8263 20.0665C33.8301 21.5311 33.6609 22.9322 33.4591 24.0839L38.2554 25.4987C38.3877 23.5337 38.0957 21.5646 37.4097 19.7298L33.7661 18.668ZM27.7624 11.1787C27.6603 11.1539 27.5581 11.1301 27.4557 11.1078C25.761 11.1166 23.2673 11.9125 20.881 14.506L24.5352 15.5712C24.8718 14.9043 25.1996 14.3221 25.5153 13.8161C26.1295 12.8315 26.6979 12.1314 27.1926 11.6553C27.3932 11.4622 27.5844 11.3045 27.7624 11.1787ZM28.6646 11.4297C28.5377 11.3896 28.4105 11.3511 28.2829 11.3148C28.0612 11.4308 27.7854 11.6289 27.4646 11.9376C26.9985 12.3862 26.4484 13.0584 25.8467 14.0229C25.5478 14.502 25.2361 15.0522 24.9161 15.6821L29.0165 16.876C29.1546 15.8679 29.2408 14.8987 29.2383 14.0448C29.2362 13.3244 29.1718 12.6952 29.0305 12.199C28.9384 11.8755 28.8153 11.6194 28.6646 11.4297ZM29.6494 11.7832C29.5124 11.7281 29.3751 11.6745 29.237 11.624C29.3034 11.7692 29.3595 11.9267 29.4068 12.0927C29.5617 12.6371 29.627 13.3053 29.6292 14.0434C29.6318 14.9359 29.5406 15.945 29.396 16.9872L33.3172 18.1289C33.0047 15.6108 32.0084 13.1896 29.6494 11.7832ZM32.0093 13.01C31.776 12.8587 31.5399 12.7153 31.3012 12.5799C32.811 14.1078 33.4905 16.1729 33.7245 18.2476L37.2281 19.2687C36.1978 16.7881 34.4331 14.582 32.0093 13.01Z" fill="#AEF261"/>
</svg>
