<svg width="75" height="15" viewBox="0 0 75 15" fill="none" xmlns="http://www.w3.org/2000/svg">
<circle cx="67.5" cy="7.5" r="7" fill="#EB8FFC" stroke="#EB8FFC"/>
<path d="M60 8.65985C58.5988 8.65985 55.5 9.5 53.3803 6.75435C52.5261 5.64801 51.6289 3 48.0091 3C44.3894 3 43.095 5.58243 42.346 7.09182C41.597 8.6012 39.6201 11 36.4623 11C32.7993 11 31.4098 8.06667 30.7783 6.73333C30.2309 5.48889 28.8836 3 25.3469 3C21.8101 3 20.3314 5.74194 19.7891 6.73333C18.983 8.20714 17.8333 8.65985 15.697 8.65985C13.5606 8.65985 10 7.09182 10 7.09182" stroke="#EB8FFC" stroke-linecap="round"/>
<circle cx="7.5" cy="7.5" r="7" fill="#EB8FFC" stroke="#EB8FFC"/>
</svg>
