<svg width="44" height="39" viewBox="0 0 44 39" fill="none" xmlns="http://www.w3.org/2000/svg">
<path d="M11.9108 22.3412C10.6078 21.4933 9.19289 21.9826 8.64829 22.3333C9.95225 22.7591 9.91403 23.5681 9.73192 23.9194C9.29487 24.7631 8.09983 24.2674 7.55695 23.9141C5.38813 21.3747 6.66354 18.6325 7.57235 17.5788C9.31028 18.4278 12.6464 17.9431 14.0973 17.5947L14.0562 34.4888L17.8624 34.4981L17.883 26.051C17.8891 23.5169 19.3406 22.8869 20.0656 22.8887C22.2406 22.8939 22.7792 25.007 22.7767 26.0629L22.7561 34.51L30.3685 34.5285L30.3904 25.5535C30.3965 23.0194 31.8472 22.7413 32.5718 22.9191C34.203 22.923 34.7429 24.5082 34.7403 25.5641L34.7185 34.5391L40.156 34.5523L40.2086 12.9067C37.18 6.14165 30.6221 4.78824 27.7217 4.95717C25.1117 4.95083 22.2826 5.64787 21.1942 5.99719C20.3283 4.30566 17.5744 3.87661 16.3056 3.87353C14.5657 3.8693 13.0415 4.56952 12.4969 4.92015C12.0608 5.34145 10.4993 6.49913 9.773 7.02531C4.98805 7.01367 3.42076 10.5295 3.23523 12.2889L3.21212 21.7918C3.64198 23.9046 5.19772 25.1403 5.92186 25.494C6.7898 26.3408 10.2701 26.2085 11.9018 26.0365C12.3388 25.1928 12.0903 23.0455 11.9108 22.3412Z" fill="#EB8FFC"/>
</svg>
