<svg width="50" height="39" viewBox="0 0 50 39" fill="none" xmlns="http://www.w3.org/2000/svg">
<path d="M7.10081 26.3381L6.79405 33.3274L28.2469 30.2656L29.2547 30.1218L30.1558 29.3522L46.9387 15.0184L40.2842 9.99822C40.4652 9.82158 40.6215 9.34002 39.7989 8.82685C38.9763 8.31367 39.0223 8.79276 39.1481 9.09645L32.7149 7.18695C32.7731 6.95949 32.7119 6.51722 32.0009 6.56779C31.2899 6.61837 31.3427 6.94214 31.4579 7.09771L24.0336 7.58115C24.1353 7.33572 24.1043 6.94192 23.1672 7.33016C22.2301 7.71839 22.4867 8.01872 22.7321 8.12036L16.3546 10.7625C16.4054 10.6398 16.2944 10.5435 15.4436 11.1399C14.5927 11.7364 14.8349 12.0021 15.0624 12.0603L10.8585 17.0043C10.6385 16.8413 10.0962 16.7102 9.68711 17.4896C9.27806 18.269 9.50799 18.5296 9.6741 18.5624L7.71067 24.8655C7.51606 24.6412 7.03536 24.4134 6.66944 25.2969C6.30353 26.1805 6.80456 26.3592 7.10081 26.3381Z" fill="#AEF261"/>
<path d="M7.1022 26.3754C6.80595 26.3965 6.30492 26.2178 6.67083 25.3342C7.03674 24.4506 7.51744 24.6785 7.71205 24.9028L29.2561 30.1591L9.67548 18.5997C9.50938 18.5669 9.27944 18.3063 9.68849 17.5269C10.0975 16.7474 10.6398 16.8786 10.8599 17.0416L29.2561 30.1591L15.0638 12.0976C14.8363 12.0393 14.5941 11.7737 15.4449 11.1772C16.2958 10.5808 16.4068 10.6771 16.356 10.7998L29.2561 30.1591L22.7335 8.15765C22.4881 8.05601 22.2315 7.75568 23.1686 7.36745C24.1057 6.97921 24.1367 7.37301 24.035 7.61844L29.2561 30.1591L31.4593 7.135C31.344 6.97943 31.2912 6.65566 32.0022 6.60508C32.7132 6.55451 32.7745 6.99678 32.7162 7.22424L29.2561 30.1591L39.1495 9.13374C39.0237 8.83005 38.9777 8.35096 39.8003 8.86414C40.6228 9.37731 40.4665 9.85887 40.2856 10.0355L29.2561 30.1591L7.1022 26.3754Z" fill="#EB8FFC"/>
<path d="M28.4289 30.3421L29.4367 30.1983L30.3378 29.4287L47.1153 15.0971L46.4629 14.6049L29.1132 29.4173L6.83507 32.3948L6.79417 33.3267L28.4289 30.3421Z" fill="#EB8FFC"/>
</svg>
