<svg width="57" height="43" viewBox="0 0 57 43" fill="none" xmlns="http://www.w3.org/2000/svg">
<path d="M46.2777 13.7213C50.7219 15.8138 53.1298 21.0115 51.7488 26.1149C50.5824 30.4248 47.0481 33.4286 43.0304 33.9979L42.5053 37.2804L9.42329 31.982L9.91523 28.9081C5.42195 26.8396 2.97794 21.6112 4.36698 16.4783C5.54162 12.1381 9.11776 9.12158 13.1706 8.583L13.6644 5.50248L46.7463 10.8009L46.2777 13.7213Z" fill="#EB8FFC"/>
<path d="M15.4999 26.3769C14.8578 26.8447 13.8651 26.7602 13.4966 26.0557C13.2203 25.5273 13.1982 24.794 13.7389 24.545C14.0993 24.3791 14.5951 24.8116 14.7405 24.7057C15.3217 24.2823 15.6481 19.0452 15.3085 17.9578C14.9689 16.8704 13.4506 13.528 15.777 11.8351C16.7786 11.9957 17.9805 14.4109 18.545 14.7783C18.9375 15.0339 19.4438 15.3231 20.2119 15.1287C22.0798 14.656 22.7498 12.6271 24.291 13.2004C24.9049 13.6432 24.8887 14.7619 23.3344 16.7179C22.0614 19.3947 20.3498 24.9641 24.6957 26.694C26.1713 27.1028 29.3885 27.688 30.1904 23.8227C30.8378 20.7021 27.9906 18.9585 27.3123 16.7838C26.9376 15.5826 27.1957 13.6662 28.7984 13.9232C29.3614 13.8739 30.3017 14.4215 31.0497 15.1752C31.0825 15.2056 31.1114 15.2378 31.137 15.2715C31.6034 15.7629 32.8553 16.8134 33.145 16.9642C34.6157 17.5806 35.8435 17.7886 37.3976 17.8845C38.4752 17.9511 39.571 17.6142 40.6752 17.8936C41.1525 18.0636 42.2088 18.5344 41.7905 19.6774C41.4912 20.4956 41.4004 21.2363 41.8157 21.4427C42.283 21.675 43.5918 21.0282 44.0935 19.8219C44.2269 19.5013 44.811 19.0179 45.514 19.7025C46.0782 20.2521 43.9042 23.9741 41.2178 23.249C40.7074 23.1112 38.9248 22.5176 39.3184 20.0632C38.1806 19.2934 35.5312 20.9367 31.7883 18.5345C31.8302 20.0835 33.2183 23.8398 31.5736 26.7639C29.9289 29.6879 27.5603 29.9231 25.6976 29.6243C22.7243 29.1476 20.8125 26.8573 20.3498 24.9641C19.9838 23.4663 20.1373 19.7128 22.1425 16.9877C21.4209 17.2164 20.6882 17.7875 18.9761 17.513C17.9745 17.3524 17.0805 16.5203 16.6335 16.1043C16.6335 16.1043 16.8255 17.0692 16.8921 17.6953C17.2077 20.6648 16.0811 25.9536 15.4999 26.3769Z" fill="#AEF261"/>
</svg>
